# File created by Blade
# Date/Time:  Tue Apr 07 20:57:09 2015
# Frame Rate: 120.000 fps
#------------------------------------------------------
:FULLY-SPECIFIED
:DEGREES
678
root 2.053263 37.290249 7.762724 380.257943 -44.445956 -533.427223
Spine -32.367341 -35.526138 10.108119
Head -71.721067 2.320933 16.539690
LeftShoulder -6.539688 17.415595 42.813746
LeftArm 122.001207 -65.727634 -112.807580
LeftForeArm -3.494358 -0.000000 57.686157
LeftHand 22.422544 -0.000000 90.712838
LeftHandThumb1 -26.253704 0.000000 33.147579
RightShoulder -24.892227 43.447992 -47.288999
RightArm 54.193202 25.940925 43.876451
RightForeArm 2.236786 -0.000000 34.275720
RightHand 24.585336 -0.000000 -87.651231
RightHandThumb1 -24.326973 -0.000000 -32.862282
LeftUpLeg 15.162786 -3.979817 30.619891
LeftLeg 17.034541 -0.000000 -0.000000
LeftFoot 41.219897 25.358568 -4.792077
LeftToeBase 22.229896 -0.000000 -0.000000
RightUpLeg -100.030439 -27.489317 8.768590
RightLeg -2.484134 -0.000000 0.000000
RightFoot 46.257159 -8.989862 2.128412
RightToeBase 28.216640 -0.000000 -0.000000
679
root 2.443993 37.356563 7.911102 378.571127 -43.219401 -534.871622
Spine -30.395661 -36.240609 9.374118
Head -70.998207 2.003903 16.639815
LeftShoulder -6.225115 14.450511 43.261765
LeftArm 113.124202 -65.079663 -103.722828
LeftForeArm -3.378007 -0.000000 57.001359
LeftHand 22.032463 -0.000000 92.279326
LeftHandThumb1 -26.253704 0.000000 33.147579
RightShoulder -22.325417 43.301487 -45.654986
RightArm 53.143634 26.776268 43.266164
RightForeArm 1.295383 -0.000000 35.334230
RightHand 24.258962 -0.000000 -88.046985
RightHandThumb1 -24.326973 -0.000000 -32.862282
LeftUpLeg 15.503990 -5.141186 30.102719
LeftLeg 17.230014 -0.000000 -0.000000
LeftFoot 40.682368 26.027877 -4.548015
LeftToeBase 22.616848 -0.000000 -0.000000
RightUpLeg -103.608973 -29.790157 10.357849
RightLeg -2.952174 -0.000000 0.000000
RightFoot 43.684672 -9.666573 2.963230
RightToeBase 28.571606 -0.000000 -0.000000
680
root 2.862817 37.409631 8.074095 376.833149 -41.977115 -536.502388
Spine -28.191809 -36.568642 8.644268
Head -70.584607 1.149125 15.856373
LeftShoulder -6.445016 13.399246 42.967154
LeftArm 110.757345 -62.013344 -100.595212
LeftForeArm -2.525616 -0.000000 55.715859
LeftHand 22.171151 -0.000000 92.608069
LeftHandThumb1 -26.253704 0.000000 33.147579
RightShoulder -20.823849 43.702644 -44.963671
RightArm 52.930770 27.271411 44.354849
RightForeArm -0.900350 -0.000000 35.754125
RightHand 24.420375 0.000000 -88.230840
RightHandThumb1 -24.326973 -0.000000 -32.862282
LeftUpLeg 15.941155 -6.067990 29.675658
LeftLeg 17.625070 -0.000000 -0.000000
LeftFoot 40.506857 26.323834 -4.798891
LeftToeBase 22.790551 -0.000000 -0.000000
RightUpLeg -106.969315 -31.999535 11.889629
RightLeg -3.192197 -0.000000 0.000000
RightFoot 41.441523 -9.157272 3.152082
RightToeBase 26.098482 -0.000000 -0.000000
681
root 3.297316 37.438916 8.237573 375.066034 -40.763782 -538.120270
Spine -25.902960 -36.631421 7.717451
Head -70.259463 0.131998 14.634908
LeftShoulder -6.389026 13.131179 43.058281
LeftArm 110.730600 -58.392092 -100.781262
LeftForeArm -1.095070 -0.000000 54.939286
LeftHand 22.727440 0.000000 91.728973
LeftHandThumb1 -26.253704 0.000000 33.147579
RightShoulder -20.021540 44.464613 -44.598094
RightArm 52.817062 27.329417 45.883252
RightForeArm -3.360631 -0.000000 36.102818
RightHand 25.120421 -0.000000 -87.366084
RightHandThumb1 -24.326973 -0.000000 -32.862282
LeftUpLeg 16.265712 -6.844973 29.099169
LeftLeg 18.190263 -0.000000 -0.000000
LeftFoot 40.735182 26.468391 -5.266263
LeftToeBase 22.916568 -0.000000 -0.000000
RightUpLeg -110.013147 -34.186240 12.890662
RightLeg -3.255008 -0.000000 0.000000
RightFoot 39.036112 -8.649458 3.146056
RightToeBase 23.154021 -0.000000 -0.000000
682
root 3.747735 37.454091 8.388175 373.422302 -39.596303 -539.790481
Spine -23.698276 -36.391500 6.724275
Head -69.928075 -1.132839 13.447114
LeftShoulder -5.762565 12.270538 43.408324
LeftArm 109.741702 -55.408696 -100.624734
LeftForeArm -0.045420 0.000000 54.708278
LeftHand 23.452700 -0.000000 89.744477
LeftHandThumb1 -26.253704 0.000000 33.147579
RightShoulder -19.587955 45.156160 -44.399426
RightArm 52.511397 27.261676 47.366742
RightForeArm -5.845119 0.000000 36.547050
RightHand 26.111054 -0.000000 -85.847417
RightHandThumb1 -24.326973 -0.000000 -32.862282
LeftUpLeg 16.424202 -7.379349 28.530969
LeftLeg 18.800245 -0.000000 -0.000000
LeftFoot 41.082049 26.986240 -6.443344
LeftToeBase 22.595026 -0.000000 -0.000000
RightUpLeg -112.932632 -36.173314 13.714872
RightLeg -3.283444 -0.000000 0.000000
RightFoot 36.382010 -8.508008 2.796716
RightToeBase 20.790986 -0.000000 -0.000000
683
root 4.218021 37.462745 8.533570 371.888126 -38.541068 -541.413411
Spine -21.659069 -35.746856 5.643359
Head -69.431305 -2.592979 12.162685
LeftShoulder -4.873683 11.441569 43.699499
LeftArm 108.759721 -52.931424 -100.212128
LeftForeArm 0.696174 -0.000000 54.440452
LeftHand 24.095860 0.000000 87.232148
LeftHandThumb1 -26.253704 0.000000 33.147579
RightShoulder -19.522493 45.265494 -44.346233
RightArm 52.212893 27.208491 48.491205
RightForeArm -7.969284 -0.000000 36.841353
RightHand 26.980623 -0.000000 -83.947115
RightHandThumb1 -24.326973 -0.000000 -32.862282
LeftUpLeg 16.457389 -7.379957 27.943327
LeftLeg 19.307608 -0.000000 -0.000000
LeftFoot 41.508191 26.821881 -6.866555
LeftToeBase 22.599767 -0.000000 -0.000000
RightUpLeg -115.830985 -37.921320 14.427625
RightLeg -3.410563 -0.000000 0.000000
RightFoot 33.763201 -9.227186 3.464957
RightToeBase 17.412090 -0.000000 -0.000000
684
root 4.705183 37.459768 8.671177 370.577139 -37.557060 -543.091246
Spine -20.053843 -34.952546 4.901623
Head -68.686121 -4.242921 10.762812
LeftShoulder -3.860555 9.928805 43.804415
LeftArm 106.153023 -51.347052 -97.945726
LeftForeArm 1.172953 -0.000000 53.768892
LeftHand 24.388414 -0.000000 85.255331
LeftHandThumb1 -26.253704 0.000000 33.147579
RightShoulder -20.658697 46.537823 -45.713993
RightArm 50.607922 25.728480 49.187980
RightForeArm -9.927729 0.000000 36.931345
RightHand 27.859406 -0.000000 -81.760974
RightHandThumb1 -24.326973 -0.000000 -32.862282
LeftUpLeg 16.303749 -7.103528 27.339344
LeftLeg 19.737188 -0.000000 -0.000000
LeftFoot 41.391485 26.683433 -7.323229
LeftToeBase 22.682529 -0.000000 -0.000000
RightUpLeg -118.727068 -39.389792 15.179176
RightLeg -3.675088 -0.000000 0.000000
RightFoot 31.453917 -9.482879 3.569350
RightToeBase 12.231307 -0.000000 -0.000000
685
root 5.196473 37.442166 8.801189 369.345297 -36.729180 -544.773397
Spine -18.578172 -34.127711 4.252619
Head -67.854800 -5.749956 9.609069
LeftShoulder -2.959882 8.856203 43.845554
LeftArm 103.686901 -50.272730 -95.350876
LeftForeArm 0.918458 -0.000000 52.940847
LeftHand 24.836460 0.000000 83.680044
LeftHandThumb1 -26.253704 0.000000 33.147579
RightShoulder -20.981944 46.140604 -45.980968
RightArm 50.052007 25.130258 49.301064
RightForeArm -10.989051 -0.000000 36.891803
RightHand 28.759994 -0.000000 -80.109555
RightHandThumb1 -24.326973 -0.000000 -32.862282
LeftUpLeg 16.098394 -6.693215 26.559853
LeftLeg 20.002002 -0.000000 -0.000000
LeftFoot 41.467630 26.549910 -7.163044
LeftToeBase 22.852349 -0.000000 -0.000000
RightUpLeg -121.421399 -40.584212 15.853929
RightLeg -4.167103 -0.000000 0.000000
RightFoot 28.581525 -9.791035 4.628667
RightToeBase 8.591894 -0.000000 -0.000000
686
root 5.683993 37.403715 8.926896 368.298131 -36.115551 -546.576180
Spine -17.311159 -33.292987 3.887684
Head -67.048023 -6.998903 8.818965
LeftShoulder -2.145120 8.000530 43.931981
LeftArm 100.856108 -49.612253 -92.343192
LeftForeArm 0.142982 0.000000 52.237676
LeftHand 24.861993 -0.000000 82.656775
LeftHandThumb1 -26.253704 0.000000 33.147579
RightShoulder -20.838573 44.892370 -45.692725
RightArm 49.958419 24.743133 48.791394
RightForeArm -11.097703 -0.000000 36.733764
RightHand 29.347332 -0.000000 -79.231734
RightHandThumb1 -24.326973 -0.000000 -32.862282
LeftUpLeg 15.792500 -6.073130 25.688345
LeftLeg 20.192530 -0.000000 -0.000000
LeftFoot 41.525578 26.388746 -6.840443
LeftToeBase 22.840637 -0.000000 -0.000000
RightUpLeg -123.711890 -41.477462 16.414074
RightLeg -5.027053 -0.000000 0.000000
RightFoot 25.097742 -9.922216 6.400570
RightToeBase 6.458597 -0.000000 -0.000000
687
root 6.165871 37.348891 9.043594 367.589762 -35.650888 -548.622697
Spine -16.320488 -32.480448 3.980320
Head -66.454846 -7.930412 8.330087
LeftShoulder -1.525733 7.642740 43.982883
LeftArm 98.245084 -49.148335 -89.166890
LeftForeArm -0.789208 -0.000000 51.422142
LeftHand 24.416016 -0.000000 82.060502
LeftHandThumb1 -26.253704 0.000000 33.147579
RightShoulder -20.743781 43.864469 -45.688629
RightArm 49.407776 24.018169 47.788673
RightForeArm -10.784895 -0.000000 36.473671
RightHand 29.734512 -0.000000 -79.246687
RightHandThumb1 -24.326973 -0.000000 -32.862282
LeftUpLeg 15.245093 -5.479075 24.788968
LeftLeg 20.391272 -0.000000 -0.000000
LeftFoot 41.377136 26.438874 -6.781166
LeftToeBase 22.170816 -0.000000 -0.000000
RightUpLeg -125.601904 -42.196918 16.924828
RightLeg -6.211540 -0.000000 0.000000
RightFoot 21.069775 -9.950930 8.448990
RightToeBase 2.321641 -0.000000 -0.000000
688
root 6.644847 37.281216 9.150758 367.134513 -35.262255 -550.958956
Spine -15.518868 -31.759041 4.531084
Head -65.925610 -8.806354 8.167294
LeftShoulder -0.991531 7.243899 44.068858
LeftArm 95.260937 -48.765466 -85.726366
LeftForeArm -2.101417 -0.000000 50.606781
LeftHand 24.575546 0.000000 82.372293
LeftHandThumb1 -26.253704 0.000000 33.147579
RightShoulder -20.614695 42.935308 -45.887903
RightArm 48.685885 23.076785 46.731612
RightForeArm -10.281277 -0.000000 36.181276
RightHand 29.651083 -0.000000 -79.514847
RightHandThumb1 -24.326973 -0.000000 -32.862282
LeftUpLeg 14.510040 -4.903620 23.939715
LeftLeg 20.511870 -0.000000 -0.000000
LeftFoot 41.381957 26.526225 -6.667672
LeftToeBase 22.291245 -0.000000 -0.000000
RightUpLeg -127.052151 -42.837063 17.395629
RightLeg -7.495726 -0.000000 0.000000
RightFoot 17.048313 -9.834884 10.560017
RightToeBase -3.157143 -0.000000 0.000000
